<svg width="23" height="24" viewBox="0 0 23 24" fill="none" xmlns="http://www.w3.org/2000/svg">
<path d="M20.125 12C20.125 12.1906 20.0493 12.3734 19.9145 12.5082C19.7797 12.643 19.5969 12.7188 19.4062 12.7188H3.59375C3.40313 12.7188 3.22031 12.643 3.08552 12.5082C2.95073 12.3734 2.875 12.1906 2.875 12C2.875 11.8094 2.95073 11.6266 3.08552 11.4918C3.22031 11.357 3.40313 11.2812 3.59375 11.2812H19.4062C19.5969 11.2812 19.7797 11.357 19.9145 11.4918C20.0493 11.6266 20.125 11.8094 20.125 12ZM3.59375 6.96875H19.4062C19.5969 6.96875 19.7797 6.89302 19.9145 6.75823C20.0493 6.62344 20.125 6.44062 20.125 6.25C20.125 6.05938 20.0493 5.87656 19.9145 5.74177C19.7797 5.60698 19.5969 5.53125 19.4062 5.53125H3.59375C3.40313 5.53125 3.22031 5.60698 3.08552 5.74177C2.95073 5.87656 2.875 6.05938 2.875 6.25C2.875 6.44062 2.95073 6.62344 3.08552 6.75823C3.22031 6.89302 3.40313 6.96875 3.59375 6.96875ZM19.4062 17.0312H3.59375C3.40313 17.0312 3.22031 17.107 3.08552 17.2418C2.95073 17.3766 2.875 17.5594 2.875 17.75C2.875 17.9406 2.95073 18.1234 3.08552 18.2582C3.22031 18.393 3.40313 18.4688 3.59375 18.4688H19.4062C19.5969 18.4688 19.7797 18.393 19.9145 18.2582C20.0493 18.1234 20.125 17.9406 20.125 17.75C20.125 17.5594 20.0493 17.3766 19.9145 17.2418C19.7797 17.107 19.5969 17.0312 19.4062 17.0312Z" fill="white"/>
</svg>
