<svg width="320" height="203" viewBox="0 0 320 203" fill="none" xmlns="http://www.w3.org/2000/svg">
<g filter="url(#filter0_d_140_2395)">
<path fill-rule="evenodd" clip-rule="evenodd" d="M313.353 125.588C313.353 125.588 299.109 118.489 293.924 119.133C288.739 119.786 280.325 107.547 271.238 104.301C262.179 101.054 249.872 95.2523 245.988 89.4501C242.094 83.6386 225.904 77.8271 223.957 73.3029C222.029 68.7787 218.781 61.027 214.242 55.2155C209.703 49.4133 209.722 41.6708 205.183 41.0272C200.644 40.3742 172.773 41.0272 172.773 37.1466C172.773 33.2847 170.836 15.1879 165.015 13.91C159.175 12.5853 151.407 11.326 148.188 8.09845C144.931 4.84289 134.561 0.971663 132.614 4.23655C130.686 7.42682 125.502 8.72344 123.564 8.72344C121.627 8.72344 122.254 17.7812 115.787 17.1282C109.301 16.4845 100.233 24.227 100.233 28.7325C100.233 33.2754 100.878 39.7212 92.4742 39.0683C88.2534 38.7324 82.2356 37.9302 77.0602 35.4116C75.8435 36.3724 68.8244 41.2137 61.7304 31.7829C53.9625 21.4192 41.8334 11.0742 34.9266 11.0742C28.7123 11.0742 7.23368 11.1208 12.2968 22.9863C13.813 20.3371 16.7236 18.5461 22.5073 19.0405C38.0524 20.3371 30.9116 38.4059 39.3627 39.0589C47.7763 39.7026 57.5001 52.6222 49.7136 51.9786C41.927 51.3349 35.4507 59.0774 27.6922 56.5028C19.9149 53.9095 10.1911 47.445 7.60803 56.5028C5.01562 65.5325 1.7681 75.2246 12.1377 74.5623C22.498 73.9373 20.5513 81.0454 13.4292 88.1349C6.31651 95.243 24.454 86.8289 25.7362 93.312C27.0277 99.7672 32.8489 100.402 30.2846 110.728C28.628 117.267 29.8447 130.317 30.3033 139.963C37.1727 139.916 46.4286 139.338 48.4127 136.558C51.6602 132.043 62.0111 123.004 67.8417 123.004C73.6723 123.004 80.1486 125.578 83.3961 121.073C86.6343 116.549 105.418 117.845 108.637 121.707C111.903 125.578 122.235 128.815 124.837 128.815C127.42 128.815 128.73 134.618 135.207 133.993C141.674 133.349 153.981 135.942 153.981 139.804C153.981 143.675 158.52 147.556 163.705 147.556C168.889 147.556 173.419 160.466 178.604 159.804C183.798 159.179 194.14 159.179 194.14 162.388C194.14 165.084 195.085 180.373 198.061 189.113C199.839 188.152 201.673 188.012 202.703 188.684C205.295 190.419 216.545 186.968 218.276 192.994C220.017 199.038 238.173 195.578 237.312 186.1C236.432 176.613 265.847 176.613 268.44 168.013C271.041 159.375 274.504 143.853 281.439 146.436C288.327 149.011 292.66 135.243 298.716 136.091C304.265 136.884 308.383 141.203 315 139.963L313.353 125.588Z" fill="#B38D5E"/>
<path fill-rule="evenodd" clip-rule="evenodd" d="M313.353 125.588C313.353 125.588 299.109 118.489 293.924 119.133C288.739 119.786 280.325 107.547 271.238 104.301C262.179 101.054 249.872 95.2523 245.988 89.4501C242.094 83.6386 225.904 77.8271 223.957 73.3029C222.029 68.7787 218.781 61.027 214.242 55.2155C209.703 49.4133 209.722 41.6708 205.183 41.0272C200.644 40.3742 172.773 41.0272 172.773 37.1466C172.773 33.2847 170.836 15.1879 165.015 13.91C159.175 12.5853 151.407 11.326 148.188 8.09845C144.931 4.84289 134.561 0.971663 132.614 4.23655C130.686 7.42682 125.502 8.72344 123.564 8.72344C121.627 8.72344 122.254 17.7812 115.787 17.1282C109.301 16.4845 100.233 24.227 100.233 28.7325C100.233 33.2754 100.878 39.7212 92.4742 39.0683C88.2534 38.7324 82.2356 37.9302 77.0602 35.4116C75.8435 36.3724 68.8244 41.2137 61.7304 31.7829C53.9625 21.4192 41.8334 11.0742 34.9266 11.0742C28.7123 11.0742 7.23368 11.1208 12.2968 22.9863C13.813 20.3371 16.7236 18.5461 22.5073 19.0405C38.0524 20.3371 30.9116 38.4059 39.3627 39.0589C47.7763 39.7026 57.5001 52.6222 49.7136 51.9786C41.927 51.3349 35.4507 59.0774 27.6922 56.5028C19.9149 53.9095 10.1911 47.445 7.60803 56.5028C5.01562 65.5325 1.7681 75.2246 12.1377 74.5623C22.498 73.9373 20.5513 81.0454 13.4292 88.1349C6.31651 95.243 24.454 86.8289 25.7362 93.312C27.0277 99.7672 32.8489 100.402 30.2846 110.728C28.628 117.267 29.8447 130.317 30.3033 139.963C37.1727 139.916 46.4286 139.338 48.4127 136.558C51.6602 132.043 62.0111 123.004 67.8417 123.004C73.6723 123.004 80.1486 125.578 83.3961 121.073C86.6343 116.549 105.418 117.845 108.637 121.707C111.903 125.578 122.235 128.815 124.837 128.815C127.42 128.815 128.73 134.618 135.207 133.993C141.674 133.349 153.981 135.942 153.981 139.804C153.981 143.675 158.52 147.556 163.705 147.556C168.889 147.556 173.419 160.466 178.604 159.804C183.798 159.179 194.14 159.179 194.14 162.388C194.14 165.084 195.085 180.373 198.061 189.113C199.839 188.152 201.673 188.012 202.703 188.684C205.295 190.419 216.545 186.968 218.276 192.994C220.017 199.038 238.173 195.578 237.312 186.1C236.432 176.613 265.847 176.613 268.44 168.013C271.041 159.375 274.504 143.853 281.439 146.436C288.327 149.011 292.66 135.243 298.716 136.091C304.265 136.884 308.383 141.203 315 139.963L313.353 125.588Z" stroke="#B38D5E" stroke-width="0.25"/>
</g>
<defs>
<filter id="filter0_d_140_2395" x="0.875" y="0.875" width="318.262" height="201.25" filterUnits="userSpaceOnUse" color-interpolation-filters="sRGB">
<feFlood flood-opacity="0" result="BackgroundImageFix"/>
<feColorMatrix in="SourceAlpha" type="matrix" values="0 0 0 0 0 0 0 0 0 0 0 0 0 0 0 0 0 0 127 0" result="hardAlpha"/>
<feOffset dy="2"/>
<feGaussianBlur stdDeviation="2"/>
<feColorMatrix type="matrix" values="0 0 0 0 0 0 0 0 0 0 0 0 0 0 0 0 0 0 0.01 0"/>
<feBlend mode="normal" in2="BackgroundImageFix" result="effect1_dropShadow_140_2395"/>
<feBlend mode="normal" in="SourceGraphic" in2="effect1_dropShadow_140_2395" result="shape"/>
</filter>
</defs>
</svg>
